# xmcd
#
# Track frame offsets:
#	150
#	17270
#	29692
#	52482
#	85410
#	100650
#	115952
#	142445
#	160717
#	181480
#	203457
#
# Disc length: 2952 seconds
#
# Revision: 0
# Processed by: cddbd v1.5.1PL2 Copyright (c) Steve Scherf et al.
# Submitted via: EasyCDDAExtractor 9.0.0.1
#
DISCID=970b860b
DTITLE=Motörhead - The Palace Hollywood 11-09-90
DYEAR=1990
DGENRE=Hard Rock
TTITLE0=Dr Rock
TTITLE1=Sister
TTITLE2=No Voices
TTITLE3=Just Coz You Got The Power
TTITLE4=Going To Brazil
TTITLE5=Sing The Blues
TTITLE6=KIlled By Death
TTITLE7=Ace Of Spades
TTITLE8=Eat The Rich
TTITLE9=Built For Speed
TTITLE10=Death Forever
EXTD=
EXTT0=
EXTT1=
EXTT2=
EXTT3=
EXTT4=
EXTT5=
EXTT6=
EXTT7=
EXTT8=
EXTT9=
EXTT10=
PLAYORDER=
